<mxfile host="app.diagrams.net" modified="2023-09-12T18:28:05.527Z" agent="Mozilla/5.0 (Macintosh; Intel Mac OS X 10_15_7) AppleWebKit/537.36 (KHTML, like Gecko) Chrome/116.0.0.0 Safari/537.36" etag="WjiJtXzJgnQkIOuFYPlg" version="21.7.4" type="google">
  <diagram name="Página-1" id="LuvdpSPgFedQNyMKWbfu">
    <mxGraphModel dx="2522" dy="1387" grid="1" gridSize="10" guides="1" tooltips="1" connect="1" arrows="1" fold="1" page="1" pageScale="1" pageWidth="827" pageHeight="1169" math="0" shadow="0">
      <root>
        <mxCell id="0" />
        <mxCell id="1" parent="0" />
        <mxCell id="CLDtQv31Alypfbk9gHmZ-19" style="edgeStyle=orthogonalEdgeStyle;rounded=0;orthogonalLoop=1;jettySize=auto;html=1;entryX=0.5;entryY=0.238;entryDx=0;entryDy=0;entryPerimeter=0;" parent="1" source="CLDtQv31Alypfbk9gHmZ-6" target="CLDtQv31Alypfbk9gHmZ-9" edge="1">
          <mxGeometry relative="1" as="geometry" />
        </mxCell>
        <mxCell id="CLDtQv31Alypfbk9gHmZ-6" value="" style="shape=folder;fontStyle=1;spacingTop=10;tabWidth=170;tabHeight=40;tabPosition=left;html=1;whiteSpace=wrap;" parent="1" vertex="1">
          <mxGeometry x="110" y="410" width="560" height="170" as="geometry" />
        </mxCell>
        <mxCell id="CLDtQv31Alypfbk9gHmZ-4" value="Interfaz Administrador" style="shape=module;align=left;spacingLeft=20;align=center;verticalAlign=top;whiteSpace=wrap;html=1;" parent="1" vertex="1">
          <mxGeometry x="330" y="480" width="130" height="50" as="geometry" />
        </mxCell>
        <mxCell id="CLDtQv31Alypfbk9gHmZ-5" value="Interfaz Usuarios" style="shape=module;align=left;spacingLeft=20;align=center;verticalAlign=top;whiteSpace=wrap;html=1;" parent="1" vertex="1">
          <mxGeometry x="180" y="480" width="130" height="50" as="geometry" />
        </mxCell>
        <mxCell id="CLDtQv31Alypfbk9gHmZ-7" value="&lt;font style=&quot;font-size: 18px;&quot;&gt;Presentación&lt;/font&gt;" style="text;html=1;align=center;verticalAlign=middle;resizable=0;points=[];autosize=1;strokeColor=none;fillColor=none;" parent="1" vertex="1">
          <mxGeometry x="130" y="410" width="130" height="40" as="geometry" />
        </mxCell>
        <mxCell id="CLDtQv31Alypfbk9gHmZ-27" style="edgeStyle=orthogonalEdgeStyle;rounded=0;orthogonalLoop=1;jettySize=auto;html=1;entryX=0.25;entryY=1;entryDx=0;entryDy=0;entryPerimeter=0;" parent="1" source="CLDtQv31Alypfbk9gHmZ-8" target="CLDtQv31Alypfbk9gHmZ-9" edge="1">
          <mxGeometry relative="1" as="geometry" />
        </mxCell>
        <mxCell id="CLDtQv31Alypfbk9gHmZ-8" value="" style="shape=folder;fontStyle=1;spacingTop=10;tabWidth=170;tabHeight=40;tabPosition=left;html=1;whiteSpace=wrap;" parent="1" vertex="1">
          <mxGeometry x="110" y="860" width="220" height="140" as="geometry" />
        </mxCell>
        <mxCell id="CLDtQv31Alypfbk9gHmZ-10" value="" style="shape=folder;fontStyle=1;spacingTop=10;tabWidth=170;tabHeight=40;tabPosition=left;html=1;whiteSpace=wrap;" parent="1" vertex="1">
          <mxGeometry x="414" y="860" width="200" height="140" as="geometry" />
        </mxCell>
        <mxCell id="CLDtQv31Alypfbk9gHmZ-9" value="" style="shape=folder;fontStyle=1;spacingTop=10;tabWidth=170;tabHeight=40;tabPosition=left;html=1;whiteSpace=wrap;" parent="1" vertex="1">
          <mxGeometry x="110" y="630" width="560" height="170" as="geometry" />
        </mxCell>
        <mxCell id="CLDtQv31Alypfbk9gHmZ-11" value="&lt;span style=&quot;font-size: 18px;&quot;&gt;Lógica de negocio&lt;/span&gt;" style="text;html=1;align=center;verticalAlign=middle;resizable=0;points=[];autosize=1;strokeColor=none;fillColor=none;" parent="1" vertex="1">
          <mxGeometry x="110" y="630" width="170" height="40" as="geometry" />
        </mxCell>
        <mxCell id="CLDtQv31Alypfbk9gHmZ-12" value="&lt;font style=&quot;font-size: 18px;&quot;&gt;BBDD&lt;/font&gt;" style="text;html=1;align=center;verticalAlign=middle;resizable=0;points=[];autosize=1;strokeColor=none;fillColor=none;" parent="1" vertex="1">
          <mxGeometry x="170" y="860" width="70" height="40" as="geometry" />
        </mxCell>
        <mxCell id="CLDtQv31Alypfbk9gHmZ-28" style="edgeStyle=orthogonalEdgeStyle;rounded=0;orthogonalLoop=1;jettySize=auto;html=1;entryX=0.75;entryY=1;entryDx=0;entryDy=0;entryPerimeter=0;" parent="1" source="CLDtQv31Alypfbk9gHmZ-13" target="CLDtQv31Alypfbk9gHmZ-9" edge="1">
          <mxGeometry relative="1" as="geometry" />
        </mxCell>
        <mxCell id="CLDtQv31Alypfbk9gHmZ-13" value="&lt;font style=&quot;font-size: 18px;&quot;&gt;Servicios&lt;/font&gt;" style="text;html=1;align=center;verticalAlign=middle;resizable=0;points=[];autosize=1;strokeColor=none;fillColor=none;" parent="1" vertex="1">
          <mxGeometry x="450" y="860" width="100" height="40" as="geometry" />
        </mxCell>
        <mxCell id="CLDtQv31Alypfbk9gHmZ-14" value="Gestión de Reservas" style="shape=module;align=left;spacingLeft=20;align=center;verticalAlign=top;whiteSpace=wrap;html=1;" parent="1" vertex="1">
          <mxGeometry x="390" y="710" width="130" height="50" as="geometry" />
        </mxCell>
        <mxCell id="CLDtQv31Alypfbk9gHmZ-17" value="Gestión de Usuarios" style="shape=module;align=left;spacingLeft=20;align=center;verticalAlign=top;whiteSpace=wrap;html=1;" parent="1" vertex="1">
          <mxGeometry x="240" y="710" width="130" height="50" as="geometry" />
        </mxCell>
        <mxCell id="CLDtQv31Alypfbk9gHmZ-26" value="Interfaz Trabajador" style="shape=module;align=left;spacingLeft=20;align=center;verticalAlign=top;whiteSpace=wrap;html=1;" parent="1" vertex="1">
          <mxGeometry x="470" y="480" width="150" height="50" as="geometry" />
        </mxCell>
      </root>
    </mxGraphModel>
  </diagram>
</mxfile>
